<svg width="40" height="40" viewBox="0 0 40 40" fill="none" xmlns="http://www.w3.org/2000/svg">
<g id="shopping-cart">
<path id="Vector" d="M15.1012 36.2559C15.9987 36.2559 16.7262 35.5283 16.7262 34.6309C16.7262 33.7334 15.9987 33.0059 15.1012 33.0059C14.2037 33.0059 13.4762 33.7334 13.4762 34.6309C13.4762 35.5283 14.2037 36.2559 15.1012 36.2559Z" stroke="#383838" stroke-width="2" stroke-linecap="round" stroke-linejoin="round"/>
<path id="Vector_2" d="M32.9762 36.2559C33.8737 36.2559 34.6012 35.5283 34.6012 34.6309C34.6012 33.7334 33.8737 33.0059 32.9762 33.0059C32.0787 33.0059 31.3512 33.7334 31.3512 34.6309C31.3512 35.5283 32.0787 36.2559 32.9762 36.2559Z" stroke="#383838" stroke-width="2" stroke-linecap="round" stroke-linejoin="round"/>
<path id="Vector_3" d="M2.1012 2.13086H8.6012L12.9562 23.8896C13.1048 24.6378 13.5118 25.3098 14.106 25.7881C14.7001 26.2664 15.4436 26.5205 16.2062 26.5059H32.0012C32.7638 26.5205 33.5073 26.2664 34.1014 25.7881C34.6956 25.3098 35.1026 24.6378 35.2512 23.8896L37.8512 10.2559H10.2262" stroke="#383838" stroke-width="2" stroke-linecap="round" stroke-linejoin="round"/>
</g>
</svg>
